<svg width="34" height="11" viewBox="0 0 34 11" fill="none" xmlns="http://www.w3.org/2000/svg">
<path d="M6.059 8.258V10H0.0400001V0.991H2.068V8.258H6.059ZM8.16429 5.489C8.16429 5.931 8.21629 6.32967 8.32029 6.685C8.43296 7.04033 8.58896 7.348 8.78829 7.608C8.99629 7.85933 9.24762 8.05433 9.54229 8.193C9.83696 8.33167 10.175 8.401 10.5563 8.401C10.929 8.401 11.2626 8.33167 11.5573 8.193C11.8606 8.05433 12.112 7.85933 12.3113 7.608C12.5193 7.348 12.6753 7.04033 12.7793 6.685C12.892 6.32967 12.9483 5.931 12.9483 5.489C12.9483 5.047 12.892 4.64833 12.7793 4.293C12.6753 3.929 12.5193 3.62133 12.3113 3.37C12.112 3.11 11.8606 2.91067 11.5573 2.772C11.2626 2.63333 10.929 2.564 10.5563 2.564C10.175 2.564 9.83696 2.63767 9.54229 2.785C9.24762 2.92367 8.99629 3.123 8.78829 3.383C8.58896 3.63433 8.43296 3.942 8.32029 4.306C8.21629 4.66133 8.16429 5.05567 8.16429 5.489ZM15.0413 5.489C15.0413 6.26033 14.9243 6.94067 14.6903 7.53C14.465 8.11067 14.153 8.60033 13.7543 8.999C13.3556 9.389 12.879 9.68367 12.3243 9.883C11.7783 10.0823 11.189 10.182 10.5563 10.182C9.94096 10.182 9.36029 10.0823 8.81429 9.883C8.26829 9.68367 7.79162 9.389 7.38429 8.999C6.97696 8.60033 6.65629 8.11067 6.42229 7.53C6.18829 6.94067 6.07129 6.26033 6.07129 5.489C6.07129 4.71767 6.19262 4.04167 6.43529 3.461C6.67796 2.87167 7.00296 2.37767 7.41029 1.979C7.82629 1.58033 8.30296 1.28133 8.84029 1.082C9.38629 0.882666 9.95829 0.782999 10.5563 0.782999C11.1716 0.782999 11.7523 0.882666 12.2983 1.082C12.8443 1.28133 13.321 1.58033 13.7283 1.979C14.1356 2.37767 14.4563 2.87167 14.6903 3.461C14.9243 4.04167 15.0413 4.71767 15.0413 5.489ZM20.4758 2.551C19.5311 2.551 18.8465 2.81533 18.4218 3.344C18.0058 3.864 17.7978 4.579 17.7978 5.489C17.7978 5.931 17.8498 6.334 17.9538 6.698C18.0578 7.05333 18.2138 7.361 18.4218 7.621C18.6298 7.881 18.8898 8.08467 19.2018 8.232C19.5138 8.37067 19.8778 8.44 20.2938 8.44C20.5191 8.44 20.7098 8.43567 20.8658 8.427C21.0305 8.41833 21.1735 8.401 21.2948 8.375V5.242H23.3228V9.701C23.0801 9.79633 22.6901 9.896 22.1528 10C21.6155 10.1127 20.9525 10.169 20.1638 10.169C19.4878 10.169 18.8725 10.065 18.3178 9.857C17.7718 9.649 17.3038 9.34567 16.9138 8.947C16.5238 8.54833 16.2205 8.05867 16.0038 7.478C15.7958 6.89733 15.6918 6.23433 15.6918 5.489C15.6918 4.735 15.8088 4.06767 16.0428 3.487C16.2768 2.90633 16.5975 2.41667 17.0048 2.018C17.4121 1.61067 17.8888 1.303 18.4348 1.095C18.9895 0.886999 19.5788 0.782999 20.2028 0.782999C20.6275 0.782999 21.0088 0.813333 21.3468 0.874C21.6935 0.926 21.9881 0.990999 22.2308 1.069C22.4821 1.13833 22.6858 1.212 22.8418 1.29C23.0065 1.368 23.1235 1.42867 23.1928 1.472L22.6078 3.097C22.3305 2.94967 22.0098 2.824 21.6458 2.72C21.2905 2.60733 20.9005 2.551 20.4758 2.551ZM26.2627 5.489C26.2627 5.931 26.3147 6.32967 26.4187 6.685C26.5314 7.04033 26.6874 7.348 26.8867 7.608C27.0947 7.85933 27.3461 8.05433 27.6407 8.193C27.9354 8.33167 28.2734 8.401 28.6547 8.401C29.0274 8.401 29.3611 8.33167 29.6557 8.193C29.9591 8.05433 30.2104 7.85933 30.4097 7.608C30.6177 7.348 30.7737 7.04033 30.8777 6.685C30.9904 6.32967 31.0467 5.931 31.0467 5.489C31.0467 5.047 30.9904 4.64833 30.8777 4.293C30.7737 3.929 30.6177 3.62133 30.4097 3.37C30.2104 3.11 29.9591 2.91067 29.6557 2.772C29.3611 2.63333 29.0274 2.564 28.6547 2.564C28.2734 2.564 27.9354 2.63767 27.6407 2.785C27.3461 2.92367 27.0947 3.123 26.8867 3.383C26.6874 3.63433 26.5314 3.942 26.4187 4.306C26.3147 4.66133 26.2627 5.05567 26.2627 5.489ZM33.1397 5.489C33.1397 6.26033 33.0227 6.94067 32.7887 7.53C32.5634 8.11067 32.2514 8.60033 31.8527 8.999C31.4541 9.389 30.9774 9.68367 30.4227 9.883C29.8767 10.0823 29.2874 10.182 28.6547 10.182C28.0394 10.182 27.4587 10.0823 26.9127 9.883C26.3667 9.68367 25.8901 9.389 25.4827 8.999C25.0754 8.60033 24.7547 8.11067 24.5207 7.53C24.2867 6.94067 24.1697 6.26033 24.1697 5.489C24.1697 4.71767 24.2911 4.04167 24.5337 3.461C24.7764 2.87167 25.1014 2.37767 25.5087 1.979C25.9247 1.58033 26.4014 1.28133 26.9387 1.082C27.4847 0.882666 28.0567 0.782999 28.6547 0.782999C29.2701 0.782999 29.8507 0.882666 30.3967 1.082C30.9427 1.28133 31.4194 1.58033 31.8267 1.979C32.2341 2.37767 32.5547 2.87167 32.7887 3.461C33.0227 4.04167 33.1397 4.71767 33.1397 5.489Z" fill="url(#paint0_linear_2_35756)"/>
<defs>
<linearGradient id="paint0_linear_2_35756" x1="33.9547" y1="5.49649" x2="-1.00009" y2="5.50227" gradientUnits="userSpaceOnUse">
<stop stop-color="#FFD25F"/>
<stop offset="1" stop-color="#FF5C01"/>
</linearGradient>
</defs>
</svg>
